<svg xmlns="http://www.w3.org/2000/svg" viewBox="0 0 260 76" role="img" aria-labelledby="title desc">
  <title id="title">Ami Cafe</title>
  <desc id="desc">Ami Cafeのロゴ。開いた本、コーヒーカップ、葉を組み合わせたやわらかなマーク。</desc>
  <g fill="none" fill-rule="evenodd">
    <path d="M38 8c14.36 0 26 11.64 26 26S52.36 60 38 60 12 48.36 12 34 23.64 8 38 8Z" fill="#e8f0df"/>
    <path d="M18 45.5c7.9-4.48 14.9-4.33 21 0 6.1-4.33 13.1-4.48 21 0" stroke="#8b6f4e" stroke-width="3.2" stroke-linecap="round"/>
    <path d="M21 25.5c7.28-3.34 13.28-2.47 18 2.62 4.72-5.09 10.72-5.96 18-2.62v20c-7.28-3.34-13.28-2.47-18 2.62-4.72-5.09-10.72-5.96-18-2.62v-20Z" fill="#fffaf3" stroke="#8b6f4e" stroke-width="3.2" stroke-linejoin="round"/>
    <path d="M39 28v20" stroke="#8b6f4e" stroke-width="2.4" stroke-linecap="round"/>
    <path d="M30 18.5c-1.9-3.1 1.8-5.1.3-8.2M39 18.5c-1.9-3.1 1.8-5.1.3-8.2M48 18.5c-1.9-3.1 1.8-5.1.3-8.2" stroke="#6f8c63" stroke-width="2.8" stroke-linecap="round"/>
    <path d="M51.2 29.2h4.1a4.7 4.7 0 0 1 0 9.4h-4.1" stroke="#8b6f4e" stroke-width="3" stroke-linecap="round"/>
    <path d="M58.5 15.5c-4.65.12-8.22 2.22-10.7 6.3 4.86.47 8.42-1.63 10.7-6.3Z" fill="#9db98d"/>
    <path d="M82 52h160" stroke="#ded0bd" stroke-width="1.6" stroke-linecap="round"/>
    <text x="82" y="38" fill="#5d4a35" font-family="Georgia, 'Times New Roman', serif" font-size="30" font-weight="700" letter-spacing="0">Ami Cafe</text>
    <text x="84" y="57" fill="#6f8c63" font-family="system-ui, -apple-system, BlinkMacSystemFont, 'Hiragino Sans', sans-serif" font-size="11" font-weight="700" letter-spacing="2.2">BOOKS &amp; COFFEE</text>
  </g>
</svg>
